<svg xmlns="http://www.w3.org/2000/svg" viewBox="0 0 24 24" width="24" height="24">
    <!-- Outer shape in light blue with fill -->
    <path d="M3 15C3 12.1911 3 10.7866 3.67412 9.77772C3.96596 9.34096 4.34096 8.96596 4.77772 8.67412C5.78661 8 7.19108 8 10 8H14C16.8089 8 18.2134 8 19.2223 8.67412C19.659 8.96596 20.034 9.34096 20.3259 9.77772C21 10.7866 21 12.1911 21 15C21 17.8089 21 19.2134 20.3259 20.2223C20.034 20.659 19.659 21.034 19.2223 21.3259C18.2134 22 16.8089 22 14 22H10C7.19108 22 5.78661 22 4.77772 21.3259C4.34096 21.034 3.96596 20.659 3.67412 20.2223C3 19.2134 3 17.8089 3 15Z" fill="#00BFFF" stroke="#00BFFF" stroke-width="1.5" stroke-linecap="round" stroke-linejoin="round" />
    <!-- Top shape in light green with fill -->
    <path d="M19 8C18.9821 6.76022 18.89 6.05733 18.4182 5.58579C17.8321 5 16.8888 5 15.0022 5H8.99783C7.11118 5 6.16786 5 5.58176 5.58579C5.10996 6.05733 5.01794 6.76022 5 8" fill="#32CD32" stroke="#32CD32" stroke-width="1.5" stroke-linecap="round" stroke-linejoin="round" />
    <!-- Bottom shape in light coral with fill -->
    <path d="M17 5C17 4.06812 17 3.60218 16.8478 3.23463C16.6448 2.74458 16.2554 2.35523 15.7654 2.15224C15.3978 2 14.9319 2 14 2H10C9.06812 2 8.60218 2 8.23463 2.15224C7.74458 2.35523 7.35523 2.74458 7.15224 3.23463C7 3.60218 7 4.06812 7 5" fill="#FF6347" stroke="#FF6347" stroke-width="1.5" stroke-linecap="round" stroke-linejoin="round" />
</svg>
